<svg xmlns="http://www.w3.org/2000/svg" xmlns:xlink="http://www.w3.org/1999/xlink" viewBox="0 0 1262 512" xmlns:v="https://vecta.io/nano"><path d="M30 30h62.6V0H0v91.5h30V30zM419.4 0v30H482v61.5h30V0h-92.6zM30 420.5H0V512h92.6v-30H30v-61.5zM482 482h-62.6v30H512v-91.5h-30V482z"/><path d="M216.6 165.7a7.85 7.85 0 0 1-7.9-7.9V55.3a7.85 7.85 0 0 1 7.9-7.9h94.6c3.2 0 6.1 1.9 7.3 4.9 1.2 2.9.6 6.3-1.7 8.6l-26 26 26 26c2.3 2.3 2.9 5.6 1.7 8.6-1.2 2.9-4.1 4.9-7.3 4.9h-86.7v31.5c-.1 4.3-3.6 7.8-7.9 7.8h0zm7.8-55.2h67.7L274 92.4c-3.1-3.1-3.1-8.1 0-11.1l18.1-18.1h-67.7v47.3zM240.2 287h-.6c-2.3-.2-4.4-1.3-5.7-3.1l-17.3-23.1-17.3 23.1c-1.4 1.8-3.5 3-5.7 3.1-2.4.2-4.5-.7-6.1-2.3L161 258.2c-3.1-3.1-3.1-8.1 0-11.1 3.1-3.1 8.1-3.1 11.1 0l20.1 20.1 18.2-24.3c3-4 9.6-4 12.6 0l18.2 24.3 20.1-20.1c3.1-3.1 8.1-3.1 11.1 0 3.1 3.1 3.1 8.1 0 11.1l-26.5 26.5c-1.6 1.4-3.6 2.3-5.7 2.3h0z" fill="#b50000"/><g fill="#003dac"><path d="M358.5 428.9H74.6c-2.8 0-5.4-1.5-6.8-3.9s-1.5-5.4-.1-7.8L209.6 157c2.8-5.1 11.1-5.1 13.8 0l141.9 260.2c1.3 2.4 1.3 5.4-.1 7.8s-3.9 3.9-6.7 3.9h0zM87.9 413.1h257.3L216.6 177.3 87.9 413.1z"/><path d="M437.4 428.9h-78.9a7.85 7.85 0 1 1 0-15.8H424l-72.9-132.6-30.1 62.2c-1.9 3.9-6.6 5.6-10.5 3.7s-5.6-6.6-3.7-10.5l36.7-76c1.3-2.6 3.9-4.4 6.9-4.4 3 .1 5.7 1.5 7.1 4.1l86.7 157.7c1.3 2.4 1.3 5.4-.1 7.8-1.4 2.3-4 3.8-6.7 3.8h0z"/></g><path d="M588.5 182.1h26.3c2.7 0 4 1.3 4 4v143.1c0 2.7-1.3 4-4 4h-14.6c-2.7 0-4-1.3-4-4V210.5h-.9l-30.5 86c-.9 2.5-2.7 3.8-5.2 3.8h-15c-2.4 0-4-1.3-4.9-3.8l-31.3-86.2h-.9v118.9c0 1.6-.3 2.6-.8 3.2-.6.6-1.6.8-3.2.8h-14.3c-2.7 0-4-1.3-4-4V186.1c0-2.7 1.3-4 4-4h26.3c1.7 0 3 .9 3.8 2.6l32.2 90.7h1.2l32.4-90.7c.2-1.8 1.4-2.6 3.4-2.6zm88.6 4v143.1c0 2.7-1.3 4-4 4h-14.8c-2.7 0-4-1.3-4-4V186.1c0-2.7 1.3-4 4-4h14.8c2.7 0 4 1.3 4 4z"/><use xlink:href="#A"/><use xlink:href="#A" x="128.8"/><path d="M994.2 186.1v143.1c0 2.7-1.3 4-4 4h-14.8c-2.7 0-4-1.3-4-4V186.1c0-2.7 1.3-4 4-4h14.8c2.6 0 4 1.3 4 4zm96.8 147.1h-27.3c-11.6 0-20.6-3.2-26.9-9.6s-9.5-15.4-9.5-26.8v-78.3c0-11.6 3.2-20.6 9.5-26.9s15.3-9.5 26.9-9.5h27.3c11.6 0 20.6 3.2 27 9.5s9.6 15.3 9.6 26.9v78.3c0 11.4-3.2 20.4-9.6 26.8s-15.4 9.6-27 9.6zm-24-20h20.4c11.4 0 17.2-5.8 17.2-17.4v-76.4c0-11.6-5.7-17.4-17.2-17.4H1067c-11.3 0-16.9 5.8-16.9 17.4v76.4c0 11.6 5.6 17.4 16.9 17.4zm110.9 20h-14.6c-2.7 0-4-1.3-4-4V186.1c0-2.7 1.3-4 4-4h13.2c2.5 0 4.2.9 5.2 2.6l56.9 102.2h.9V186.1c0-2.7 1.3-4 4-4h14.6c2.7 0 4 1.3 4 4v143.1c0 2.7-1.3 4-4 4h-12.7c-2.5 0-4.5-1.3-6.1-3.8l-56.4-101.1h-.9v100.8c-.1 2.7-1.4 4.1-4.1 4.1z"/><defs><path id="A" d="M709.8 296.5v-6.1c0-2.7 1.3-4 4-4h15c2.7 0 4 1.3 4 4v4.2c0 6.6 1.4 11.3 4.3 14.2s7.7 4.3 14.5 4.3h16.2c6.7 0 11.6-1.5 14.6-4.6s4.5-8 4.5-14.9v-5.4c0-5-1.9-9-5.8-11.9-3.8-2.9-8.6-4.8-14.2-5.6-5.6-.9-11.8-2.1-18.6-3.6-6.7-1.6-12.9-3.4-18.6-5.4-5.6-2-10.4-5.9-14.2-11.5s-5.8-12.8-5.8-21.6v-9.9c0-11.4 3.3-20.4 9.8-26.9s15.5-9.8 26.9-9.8h24.9c11.6 0 20.6 3.3 27.1 9.8s9.8 15.5 9.8 26.9v5.2c0 2.7-1.3 4-4 4h-15c-2.7 0-4-1.3-4-4v-3.1c0-6.7-1.5-11.6-4.3-14.5-2.9-2.9-7.7-4.3-14.5-4.3h-14.8c-6.7 0-11.6 1.5-14.5 4.6s-4.3 8.3-4.3 15.6v7.3c0 7 5.1 11.8 15.3 14.3 4.5 1.1 9.5 2 14.9 2.8s10.8 2 16.3 3.5c5.5 1.6 10.5 3.6 15 6.2s8.2 6.5 11 11.8 4.2 11.6 4.2 19.2v9.2c0 11.4-3.3 20.4-9.8 26.9s-15.5 9.8-26.9 9.8h-26.3c-11.4 0-20.4-3.3-27-9.8-6.4-6.5-9.7-15.4-9.7-26.9z"/></defs></svg>