<svg xmlns="http://www.w3.org/2000/svg" viewBox="0 0 1100.8 512" xmlns:v="https://vecta.io/nano"><path d="M465.2 262.9l4.4-6.9-4.4-6.9c-.7-1.2-18.4-28.8-52.8-56.4-45.7-36.8-99.7-56.2-155.9-56.2s-110.2 19.4-156.2 56.2C65.7 220.3 47.8 248 47 249.1l-4.6 6.9 4.5 7c.7 1.2 18.6 28.8 53.3 56.4 46 36.8 100 56.2 156.2 56.2s110.1-19.5 155.9-56.2c34.5-27.7 52.2-55.4 52.9-56.5z" fill="#003dac"/><path d="M406.5 305.2c-44.9 37.1-95.4 55.9-150 55.9-54.7 0-105.3-18.8-150.5-55.9-23.4-19.2-39.2-38.6-47-49.1 7.8-10.5 23.6-29.9 47-49.1 45.2-37.1 95.8-55.9 150.5-55.9s105.1 18.8 150 55.9c23.3 19.2 39 38.7 46.6 49.2-7.7 10.3-23.4 29.7-46.6 49z" fill="#fff"/><path d="M256 165.9c-49.7 0-90.1 40.4-90.1 90.1s40.4 90.1 90.1 90.1 90.1-40.4 90.1-90.1-40.4-90.1-90.1-90.1zm0 150.2c-33.2 0-60.1-27-60.1-60.1s27-60.1 60.1-60.1 60.1 27 60.1 60.1-26.9 60.1-60.1 60.1zm0-110.1c-27.6 0-50 22.4-50 50s22.4 50 50 50 50-22.4 50-50-22.4-50-50-50zm0 83.4c-18.4 0-33.4-15-33.4-33.4s15-33.4 33.4-33.4 33.4 15 33.4 33.4-15 33.4-33.4 33.4z" fill="#b50000"/><path d="M256 233c-12.7 0-23 10.3-23 23s10.3 23 23 23 23-10.3 23-23-10.3-23-23-23z" fill="#003dac"/><path d="M30 30h62.6V0H0v91.5h30V30zM419.4 0v30H482v61.5h30V0h-92.6zM30 420.5H0V512h92.6v-30H30v-61.5zM482 482h-62.6v30H512v-91.5h-30V482zm73.1-152.2h-23.3c-2.7 0-4.3-1.3-4.9-4l-39-142.6c-.9-3 .2-4.5 3.5-4.5h16.7c2.5 0 4 1.3 4.5 4l30.3 122.7h.9l30.1-122.7c.6-2.7 2.2-4 4.7-4h16.5c3.3 0 4.5 1.5 3.8 4.5l-39.2 142.6c-.7 2.6-2.2 4-4.6 4zm89.6-147.2v143.1c0 2.7-1.3 4-4 4h-14.8c-2.7 0-4-1.3-4-4V182.6c0-2.7 1.3-4 4-4h14.8c2.6.1 4 1.4 4 4zm32.6 110.5V287c0-2.7 1.3-4 4-4h15c2.7 0 4 1.3 4 4v4.2c0 6.6 1.4 11.3 4.3 14.2s7.7 4.3 14.5 4.3h16.2c6.7 0 11.6-1.5 14.6-4.6s4.5-8 4.5-14.9v-5.4c0-5-1.9-9-5.8-11.9-3.8-2.9-8.6-4.8-14.2-5.6-5.6-.9-11.8-2.1-18.6-3.6-6.7-1.6-12.9-3.4-18.6-5.4-5.6-2-10.4-5.9-14.2-11.5s-5.8-12.8-5.8-21.6v-9.9c0-11.4 3.3-20.4 9.8-26.9s15.5-9.8 26.9-9.8h24.9c11.6 0 20.6 3.3 27.1 9.8s9.8 15.5 9.8 26.9v5.2c0 2.7-1.3 4-4 4h-15c-2.7 0-4-1.3-4-4v-3.1c0-6.7-1.5-11.6-4.3-14.5-2.9-2.9-7.7-4.3-14.5-4.3h-14.8c-6.7 0-11.6 1.5-14.5 4.6s-4.3 8.3-4.3 15.6v7.3c0 7 5.1 11.8 15.3 14.3 4.5 1.1 9.5 2 14.9 2.8s10.8 2 16.3 3.5c5.5 1.6 10.5 3.6 15 6.2s8.2 6.5 11 11.8 4.2 11.6 4.2 19.2v9.2c0 11.4-3.3 20.4-9.8 26.9s-15.5 9.8-26.9 9.8H714c-11.4 0-20.4-3.3-27-9.8-6.4-6.5-9.7-15.5-9.7-26.9zm155.6-110.5v143.1c0 2.7-1.3 4-4 4h-14.8c-2.7 0-4-1.3-4-4V182.6c0-2.7 1.3-4 4-4h14.8c2.7.1 4 1.4 4 4zm96.8 147.2h-27.3c-11.6 0-20.6-3.2-26.9-9.6s-9.5-15.4-9.5-26.8v-78.3c0-11.6 3.2-20.6 9.5-26.9s15.3-9.5 26.9-9.5h27.3c11.6 0 20.6 3.2 27 9.5s9.6 15.3 9.6 26.9v78.3c0 11.4-3.2 20.4-9.6 26.8-6.4 6.3-15.4 9.6-27 9.6zm-23.9-20h20.4c11.4 0 17.2-5.8 17.2-17.4V216c0-11.6-5.7-17.4-17.2-17.4h-20.4c-11.3 0-16.9 5.8-16.9 17.4v76.4c-.1 11.6 5.6 17.4 16.9 17.4zm110.9 20h-14.6c-2.7 0-4-1.3-4-4V182.6c0-2.7 1.3-4 4-4h13.2c2.5 0 4.2.9 5.2 2.6l56.9 102.2h.9V182.6c0-2.7 1.3-4 4-4h14.6c2.7 0 4 1.3 4 4v143.1c0 2.7-1.3 4-4 4h-12.7c-2.5 0-4.5-1.3-6.1-3.8l-56.4-101.1h-.9v100.8c-.1 2.8-1.5 4.2-4.1 4.2z"/></svg>